# xmcd
#
# Track frame offsets: 
#        150
#        11332
#        25370
#        37350
#        51095
#        62987
#        74870
#        90457
#        107402
#        117745
#        127550
#        139177
#        150395
#        162320
#        176552
#        189082
#        202695
#        216007
#        227035
#        242087
#
# Disc length: 3403 seconds
#
# Revision: 3
# Processed by: cddbd v1.5.2PL0 Copyright (c) Steve Scherf et al.
# Submitted via: ExactAudioCopy v0.99pb5
#
DISCID=100d4914
DTITLE=Conway Twitty - 20 All Time Greatest Hits
DYEAR=2003
DGENRE=Country
TTITLE0=It's Only Make Believe
TTITLE1=Fifteen Years Ago
TTITLE2=She Needs Someone To Hold Her (When She Cries)
TTITLE3=Baby's Gone
TTITLE4=I'm Not Through Loving You Yet
TTITLE5=Linda On My Mind
TTITLE6=Touch The Hand
TTITLE7=Don't Cry Joni
TTITLE8=(I Can't Believe) She Gives It All To Me
TTITLE9=I'll Try
TTITLE10=To See An Angel Cry
TTITLE11=Hello, Darlin'
TTITLE12=I Can't See Me Without You
TTITLE13=You've Never Been This Far Before
TTITLE14=This Time I've Hurt Her More (Than She Loves Me)
TTITLE15=The Game That Daddies Play
TTITLE16=After All The Good Is Gone
TTITLE17=As Soon As I Hang Up The Phone
TTITLE18=(Lost Our Love) On Our Last Date
TTITLE19=Danny Boy
EXTD=King Records
EXTT0=
EXTT1=
EXTT2=
EXTT3=
EXTT4=
EXTT5=
EXTT6=
EXTT7=
EXTT8=
EXTT9=
EXTT10=
EXTT11=
EXTT12=
EXTT13=
EXTT14=
EXTT15=
EXTT16=
EXTT17=
EXTT18=
EXTT19=
PLAYORDER=
